<svg width="507" height="21" viewBox="0 0 507 21" fill="none" xmlns="http://www.w3.org/2000/svg">
<path d="M0 20.6445V0H21.1328V3.51562H4.80469V8.125H14.3359V11.6406H4.80469V16.7578H21.3281V20.6445H0ZM28.6914 20.6445V3.73047H31.5234L45.8789 14.9609V3.73047H49.6094V20.6445H46.7578L32.4414 9.23828V20.6445H28.6914ZM73.75 6.83594H60.8789V17.4023H73.75V13.8086H67.0312V10.8008H77.793V16.6406C77.793 18.1901 77.487 19.2448 76.875 19.8047C76.276 20.3646 75.1172 20.6445 73.3984 20.6445H61.1523C59.4336 20.6445 58.2682 20.3646 57.6562 19.8047C57.0573 19.2448 56.7578 18.1901 56.7578 16.6406V7.71484C56.7578 6.17839 57.0573 5.13021 57.6562 4.57031C58.2682 4.01042 59.4336 3.73047 61.1523 3.73047H73.3984C75.1042 3.73047 76.263 4.00391 76.875 4.55078C77.487 5.09766 77.793 6.08724 77.793 7.51953V7.96875L73.75 8.65234V6.83594ZM84.8633 20.6445V3.73047H88.9648V20.6445H84.8633ZM96.5039 20.6445V3.73047H99.3359L113.691 14.9609V3.73047H117.422V20.6445H114.57L100.254 9.23828V20.6445H96.5039ZM124.98 20.6445V3.73047H143.125V6.71875H129.141V10.4102H137.285V13.3203H129.141V17.4805H143.34V20.6445H124.98ZM149.316 20.6445V3.73047H167.461V6.71875H153.477V10.4102H161.621V13.3203H153.477V17.4805H167.676V20.6445H149.316ZM187.129 6.64062H177.715V11.3281H187.129C187.845 11.3281 188.333 11.224 188.594 11.0156C188.867 10.8073 189.004 10.4557 189.004 9.96094V8.00781C189.004 7.51302 188.867 7.16146 188.594 6.95312C188.333 6.74479 187.845 6.64062 187.129 6.64062ZM173.652 20.6445V3.73047H188.887C190.28 3.73047 191.289 3.99089 191.914 4.51172C192.539 5.01953 192.852 5.85286 192.852 7.01172V10.9961C192.852 12.1419 192.539 12.9688 191.914 13.4766C191.289 13.9844 190.28 14.2383 188.887 14.2383H186.562L194.609 20.6445H188.691L181.602 14.2383H177.715V20.6445H173.652ZM199.668 20.6445V3.73047H203.77V20.6445H199.668ZM211.309 20.6445V3.73047H214.141L228.496 14.9609V3.73047H232.227V20.6445H229.375L215.059 9.23828V20.6445H211.309ZM256.367 6.83594H243.496V17.4023H256.367V13.8086H249.648V10.8008H260.41V16.6406C260.41 18.1901 260.104 19.2448 259.492 19.8047C258.893 20.3646 257.734 20.6445 256.016 20.6445H243.77C242.051 20.6445 240.885 20.3646 240.273 19.8047C239.674 19.2448 239.375 18.1901 239.375 16.6406V7.71484C239.375 6.17839 239.674 5.13021 240.273 4.57031C240.885 4.01042 242.051 3.73047 243.77 3.73047H256.016C257.721 3.73047 258.88 4.00391 259.492 4.55078C260.104 5.09766 260.41 6.08724 260.41 7.51953V7.96875L256.367 8.65234V6.83594ZM302.383 3.61328H288.867V8.04688H301.738C303.757 8.04688 305.117 8.39193 305.82 9.08203C306.536 9.77214 306.895 11.0547 306.895 12.9297V15.7617C306.895 17.6367 306.536 18.9193 305.82 19.6094C305.117 20.2995 303.757 20.6445 301.738 20.6445H288.984C286.966 20.6445 285.599 20.2995 284.883 19.6094C284.18 18.9193 283.828 17.6367 283.828 15.7617V15.1953L288.066 14.3164V16.7578H302.656V12.0508H289.785C287.78 12.0508 286.426 11.7057 285.723 11.0156C285.02 10.3255 284.668 9.04297 284.668 7.16797V4.88281C284.668 3.00781 285.02 1.72526 285.723 1.03516C286.426 0.345052 287.78 0 289.785 0H301.504C303.444 0 304.779 0.332031 305.508 0.996094C306.25 1.66016 306.621 2.83854 306.621 4.53125V4.96094L302.383 5.95703V3.61328ZM319.082 17.4023H332.715V6.83594H319.082V17.4023ZM314.961 7.71484C314.961 6.17839 315.26 5.13021 315.859 4.57031C316.458 4.01042 317.624 3.73047 319.355 3.73047H332.441C334.186 3.73047 335.352 4.01042 335.938 4.57031C336.536 5.13021 336.836 6.17839 336.836 7.71484V16.6406C336.836 18.1901 336.53 19.2448 335.918 19.8047C335.319 20.3646 334.16 20.6445 332.441 20.6445H319.355C317.624 20.6445 316.458 20.3646 315.859 19.8047C315.26 19.2448 314.961 18.1901 314.961 16.6406V7.71484ZM343.965 20.6445V3.73047H348.125V17.4805H361.387V20.6445H343.965ZM370.879 3.73047V17.4805H382.656V3.73047H386.816V16.6406C386.816 18.1771 386.504 19.2318 385.879 19.8047C385.267 20.3646 384.095 20.6445 382.363 20.6445H371.172C369.453 20.6445 368.288 20.3646 367.676 19.8047C367.077 19.2448 366.777 18.1901 366.777 16.6406V3.73047H370.879ZM404.434 6.75781V20.6445H400.312V6.75781H392.148V3.73047H412.617V6.75781H404.434ZM417.949 20.6445V3.73047H422.051V20.6445H417.949ZM433.301 17.4023H446.934V6.83594H433.301V17.4023ZM429.18 7.71484C429.18 6.17839 429.479 5.13021 430.078 4.57031C430.677 4.01042 431.842 3.73047 433.574 3.73047H446.66C448.405 3.73047 449.57 4.01042 450.156 4.57031C450.755 5.13021 451.055 6.17839 451.055 7.71484V16.6406C451.055 18.1901 450.749 19.2448 450.137 19.8047C449.538 20.3646 448.379 20.6445 446.66 20.6445H433.574C431.842 20.6445 430.677 20.3646 430.078 19.8047C429.479 19.2448 429.18 18.1901 429.18 16.6406V7.71484ZM458.184 20.6445V3.73047H461.016L475.371 14.9609V3.73047H479.102V20.6445H476.25L461.934 9.23828V20.6445H458.184ZM502.285 6.75781H490.645V10.332H501.66C503.392 10.332 504.557 10.612 505.156 11.1719C505.755 11.7188 506.055 12.7669 506.055 14.3164V16.6406C506.055 18.1901 505.749 19.2448 505.137 19.8047C504.525 20.3646 503.366 20.6445 501.66 20.6445H490.684C488.939 20.6445 487.754 20.3646 487.129 19.8047C486.517 19.2448 486.211 18.1901 486.211 16.6406V16.1719L489.883 15.4883V17.4805H502.324V13.6133H491.367C489.635 13.6133 488.464 13.3333 487.852 12.7734C487.24 12.2005 486.934 11.1458 486.934 9.60938V7.71484C486.934 6.19141 487.24 5.14974 487.852 4.58984C488.464 4.01693 489.635 3.73047 491.367 3.73047H501.406C503.112 3.73047 504.277 4.00391 504.902 4.55078C505.54 5.08464 505.859 6.03516 505.859 7.40234V7.8125L502.285 8.57422V6.75781Z" fill="#86C232"/>
<path d="M0 20.6445V0H21.1328V3.51562H4.80469V8.125H14.3359V11.6406H4.80469V16.7578H21.3281V20.6445H0ZM28.6914 20.6445V3.73047H31.5234L45.8789 14.9609V3.73047H49.6094V20.6445H46.7578L32.4414 9.23828V20.6445H28.6914ZM73.75 6.83594H60.8789V17.4023H73.75V13.8086H67.0312V10.8008H77.793V16.6406C77.793 18.1901 77.487 19.2448 76.875 19.8047C76.276 20.3646 75.1172 20.6445 73.3984 20.6445H61.1523C59.4336 20.6445 58.2682 20.3646 57.6562 19.8047C57.0573 19.2448 56.7578 18.1901 56.7578 16.6406V7.71484C56.7578 6.17839 57.0573 5.13021 57.6562 4.57031C58.2682 4.01042 59.4336 3.73047 61.1523 3.73047H73.3984C75.1042 3.73047 76.263 4.00391 76.875 4.55078C77.487 5.09766 77.793 6.08724 77.793 7.51953V7.96875L73.75 8.65234V6.83594ZM84.8633 20.6445V3.73047H88.9648V20.6445H84.8633ZM96.5039 20.6445V3.73047H99.3359L113.691 14.9609V3.73047H117.422V20.6445H114.57L100.254 9.23828V20.6445H96.5039ZM124.98 20.6445V3.73047H143.125V6.71875H129.141V10.4102H137.285V13.3203H129.141V17.4805H143.34V20.6445H124.98ZM149.316 20.6445V3.73047H167.461V6.71875H153.477V10.4102H161.621V13.3203H153.477V17.4805H167.676V20.6445H149.316ZM187.129 6.64062H177.715V11.3281H187.129C187.845 11.3281 188.333 11.224 188.594 11.0156C188.867 10.8073 189.004 10.4557 189.004 9.96094V8.00781C189.004 7.51302 188.867 7.16146 188.594 6.95312C188.333 6.74479 187.845 6.64062 187.129 6.64062ZM173.652 20.6445V3.73047H188.887C190.28 3.73047 191.289 3.99089 191.914 4.51172C192.539 5.01953 192.852 5.85286 192.852 7.01172V10.9961C192.852 12.1419 192.539 12.9688 191.914 13.4766C191.289 13.9844 190.28 14.2383 188.887 14.2383H186.562L194.609 20.6445H188.691L181.602 14.2383H177.715V20.6445H173.652ZM199.668 20.6445V3.73047H203.77V20.6445H199.668ZM211.309 20.6445V3.73047H214.141L228.496 14.9609V3.73047H232.227V20.6445H229.375L215.059 9.23828V20.6445H211.309ZM256.367 6.83594H243.496V17.4023H256.367V13.8086H249.648V10.8008H260.41V16.6406C260.41 18.1901 260.104 19.2448 259.492 19.8047C258.893 20.3646 257.734 20.6445 256.016 20.6445H243.77C242.051 20.6445 240.885 20.3646 240.273 19.8047C239.674 19.2448 239.375 18.1901 239.375 16.6406V7.71484C239.375 6.17839 239.674 5.13021 240.273 4.57031C240.885 4.01042 242.051 3.73047 243.77 3.73047H256.016C257.721 3.73047 258.88 4.00391 259.492 4.55078C260.104 5.09766 260.41 6.08724 260.41 7.51953V7.96875L256.367 8.65234V6.83594ZM302.383 3.61328H288.867V8.04688H301.738C303.757 8.04688 305.117 8.39193 305.82 9.08203C306.536 9.77214 306.895 11.0547 306.895 12.9297V15.7617C306.895 17.6367 306.536 18.9193 305.82 19.6094C305.117 20.2995 303.757 20.6445 301.738 20.6445H288.984C286.966 20.6445 285.599 20.2995 284.883 19.6094C284.18 18.9193 283.828 17.6367 283.828 15.7617V15.1953L288.066 14.3164V16.7578H302.656V12.0508H289.785C287.78 12.0508 286.426 11.7057 285.723 11.0156C285.02 10.3255 284.668 9.04297 284.668 7.16797V4.88281C284.668 3.00781 285.02 1.72526 285.723 1.03516C286.426 0.345052 287.78 0 289.785 0H301.504C303.444 0 304.779 0.332031 305.508 0.996094C306.25 1.66016 306.621 2.83854 306.621 4.53125V4.96094L302.383 5.95703V3.61328ZM319.082 17.4023H332.715V6.83594H319.082V17.4023ZM314.961 7.71484C314.961 6.17839 315.26 5.13021 315.859 4.57031C316.458 4.01042 317.624 3.73047 319.355 3.73047H332.441C334.186 3.73047 335.352 4.01042 335.938 4.57031C336.536 5.13021 336.836 6.17839 336.836 7.71484V16.6406C336.836 18.1901 336.53 19.2448 335.918 19.8047C335.319 20.3646 334.16 20.6445 332.441 20.6445H319.355C317.624 20.6445 316.458 20.3646 315.859 19.8047C315.26 19.2448 314.961 18.1901 314.961 16.6406V7.71484ZM343.965 20.6445V3.73047H348.125V17.4805H361.387V20.6445H343.965ZM370.879 3.73047V17.4805H382.656V3.73047H386.816V16.6406C386.816 18.1771 386.504 19.2318 385.879 19.8047C385.267 20.3646 384.095 20.6445 382.363 20.6445H371.172C369.453 20.6445 368.288 20.3646 367.676 19.8047C367.077 19.2448 366.777 18.1901 366.777 16.6406V3.73047H370.879ZM404.434 6.75781V20.6445H400.312V6.75781H392.148V3.73047H412.617V6.75781H404.434ZM417.949 20.6445V3.73047H422.051V20.6445H417.949ZM433.301 17.4023H446.934V6.83594H433.301V17.4023ZM429.18 7.71484C429.18 6.17839 429.479 5.13021 430.078 4.57031C430.677 4.01042 431.842 3.73047 433.574 3.73047H446.66C448.405 3.73047 449.57 4.01042 450.156 4.57031C450.755 5.13021 451.055 6.17839 451.055 7.71484V16.6406C451.055 18.1901 450.749 19.2448 450.137 19.8047C449.538 20.3646 448.379 20.6445 446.66 20.6445H433.574C431.842 20.6445 430.677 20.3646 430.078 19.8047C429.479 19.2448 429.18 18.1901 429.18 16.6406V7.71484ZM458.184 20.6445V3.73047H461.016L475.371 14.9609V3.73047H479.102V20.6445H476.25L461.934 9.23828V20.6445H458.184ZM502.285 6.75781H490.645V10.332H501.66C503.392 10.332 504.557 10.612 505.156 11.1719C505.755 11.7188 506.055 12.7669 506.055 14.3164V16.6406C506.055 18.1901 505.749 19.2448 505.137 19.8047C504.525 20.3646 503.366 20.6445 501.66 20.6445H490.684C488.939 20.6445 487.754 20.3646 487.129 19.8047C486.517 19.2448 486.211 18.1901 486.211 16.6406V16.1719L489.883 15.4883V17.4805H502.324V13.6133H491.367C489.635 13.6133 488.464 13.3333 487.852 12.7734C487.24 12.2005 486.934 11.1458 486.934 9.60938V7.71484C486.934 6.19141 487.24 5.14974 487.852 4.58984C488.464 4.01693 489.635 3.73047 491.367 3.73047H501.406C503.112 3.73047 504.277 4.00391 504.902 4.55078C505.54 5.08464 505.859 6.03516 505.859 7.40234V7.8125L502.285 8.57422V6.75781Z" fill="black" fill-opacity="0.2"/>
</svg>
