<svg width="100" height="100" viewBox="0 0 100 100" fill="none" xmlns="http://www.w3.org/2000/svg">
<path fill-rule="evenodd" clip-rule="evenodd" d="M43.125 12.5H57.1875V19.375H60.9375C62.8125 19.375 64.0625 20.625 64.0625 22.5V36.875L62.1875 39.375L81.5625 73.125L84.375 85.3125C84.6875 86.875 82.8125 88.125 81.5625 86.875L72.5 78.4375L66.25 67.5C61.25 70.3125 55.9375 71.875 50 71.875C44.0625 71.875 38.75 70.3125 34.0625 67.5L27.8125 78.4375L18.75 86.875C17.5 88.125 15.3125 86.875 15.9375 85.3125L18.75 73.125L25.9375 60.3125C21.25 55 18.75 47.8125 18.75 40.3125C18.75 39.0625 18.75 37.8125 19.0625 36.875H28.4375C28.125 38.125 28.125 39.0625 28.125 40.3125C28.125 44.375 29.375 48.125 31.25 51.5625L38.4375 39.375L36.5625 36.875V22.5C36.5625 20.625 37.8125 19.375 39.6875 19.375H43.4375V12.5H43.125ZM45 48.125L38.75 59.375C42.1875 61.25 45.9375 62.5 50 62.5C54.0625 62.5 58.125 61.25 61.25 59.375L54.6875 48.125L52.1875 51.25C50.9375 52.8125 48.4375 52.8125 47.1875 51.25L45 48.125ZM44.0625 36.875C45.3125 39.0625 47.5 40.3125 50 40.3125C52.5 40.3125 55 39.0625 55.9375 36.875C56.5625 35.9375 56.875 34.6875 56.875 33.4375C56.875 29.6875 53.75 26.5625 50 26.5625C46.25 26.5625 43.125 29.6875 43.125 33.4375C43.125 34.6875 43.4375 35.9375 44.0625 36.875Z" fill="#86C232"/>
</svg>
